<?xml version="1.0" encoding="UTF-8" standalone="no"?><!DOCTYPE svg PUBLIC "-//W3C//DTD SVG 1.1//EN" "http://www.w3.org/Graphics/SVG/1.1/DTD/svg11.dtd"><svg width="100%" height="100%" viewBox="0 0 2250 2250" version="1.1" xmlns="http://www.w3.org/2000/svg" xmlns:xlink="http://www.w3.org/1999/xlink" xml:space="preserve" xmlns:serif="http://www.serif.com/" style="fill-rule:evenodd;clip-rule:evenodd;stroke-linejoin:round;stroke-miterlimit:2;"><g><path d="M268.098,287.593l401.955,0c130.795,0 228.892,35.091 294.289,105.274c65.398,70.183 98.096,173.064 98.096,308.644l0,846.978c0,135.58 -32.698,238.461 -98.096,308.644c-65.397,70.183 -163.494,105.274 -294.289,105.274l-401.955,-0l-0,-1674.81Zm397.17,1435.56c43.067,-0 76.164,-12.761 99.293,-38.282c23.128,-25.521 34.692,-66.992 34.692,-124.414l0,-870.904c0,-57.422 -11.564,-98.893 -34.692,-124.414c-23.129,-25.521 -56.226,-38.282 -99.293,-38.282l-133.985,0l0,1196.3l133.985,-0Z" style="fill:#d4a574;fill-rule:nonzero;"/><path d="M1264.12,287.593l717.777,0l0,239.259l-454.592,0l-0,442.63l361.281,-0l-0,239.259l-361.281,-0l-0,514.407l454.592,-0l0,239.259l-717.777,-0l-0,-1674.81Z" style="fill:#d4a574;fill-rule:nonzero;"/></g></svg>