<?xml version="1.0" encoding="UTF-8" standalone="no"?><!DOCTYPE svg PUBLIC "-//W3C//DTD SVG 1.1//EN" "http://www.w3.org/Graphics/SVG/1.1/DTD/svg11.dtd"><svg width="100%" height="100%" viewBox="0 0 4000 1250" version="1.1" xmlns="http://www.w3.org/2000/svg" xmlns:xlink="http://www.w3.org/1999/xlink" xml:space="preserve" xmlns:serif="http://www.serif.com/" style="fill-rule:evenodd;clip-rule:evenodd;stroke-linejoin:round;stroke-miterlimit:2;"><path d="M86.459,345l140,0c45.556,0 79.723,12.222 102.5,36.667c22.778,24.444 34.167,60.277 34.167,107.5l0,295c0,47.222 -11.389,83.055 -34.167,107.5c-22.777,24.444 -56.944,36.666 -102.5,36.666l-140,0l0,-583.333Zm138.334,500c15,-0 26.528,-4.444 34.583,-13.333c8.056,-8.889 12.083,-23.334 12.083,-43.334l0,-303.333c0,-20 -4.027,-34.444 -12.083,-43.333c-8.055,-8.889 -19.583,-13.334 -34.583,-13.334l-46.667,0l0,416.667l46.667,0Z" style="fill:#2a2420;fill-rule:nonzero;"/><rect x="416.459" y="345" width="91.667" height="583.333" style="fill:#2a2420;fill-rule:nonzero;"/><path d="M639.793,428.333l-95.834,0l0,-83.333l283.334,0l-0,83.333l-95.834,0l0,500l-91.666,0l-0,-500Z" style="fill:#2a2420;fill-rule:nonzero;"/><path d="M863.126,345l91.667,0l-0,237.5l98.333,0l0,-237.5l91.667,0l-0,583.333l-91.667,0l0,-262.5l-98.333,0l-0,262.5l-91.667,0l0,-583.333Z" style="fill:#2a2420;fill-rule:nonzero;"/><path d="M1204.79,345l250,0l-0,83.333l-158.334,0l0,154.167l125.834,0l-0,83.333l-125.834,0l0,179.167l158.334,0l-0,83.333l-250,0l-0,-583.333Z" style="fill:#2a2420;fill-rule:nonzero;"/><path d="M1498.96,345l135.834,0c47.222,0 81.666,10.972 103.333,32.917c21.667,21.944 32.5,55.694 32.5,101.25l0,35.833c0,60.556 -20,98.889 -60,115l0,1.667c22.222,6.666 37.917,20.277 47.083,40.833c9.167,20.556 13.75,48.056 13.75,82.5l0,102.5c0,16.667 0.556,30.139 1.667,40.417c1.111,10.277 3.889,20.416 8.333,30.416l-93.333,0c-3.333,-9.444 -5.555,-18.333 -6.667,-26.666c-1.111,-8.334 -1.666,-23.334 -1.666,-45l-0,-106.667c-0,-26.667 -4.306,-45.278 -12.917,-55.833c-8.611,-10.556 -23.472,-15.834 -44.583,-15.834l-31.667,0l0,250l-91.667,0l0,-583.333Zm125,250c18.334,-0 32.084,-4.722 41.25,-14.167c9.167,-9.444 13.75,-25.277 13.75,-47.5l0,-45c0,-21.111 -3.75,-36.389 -11.25,-45.833c-7.5,-9.444 -19.305,-14.167 -35.416,-14.167l-41.667,0l0,166.667l33.333,-0Z" style="fill:#2a2420;fill-rule:nonzero;"/><path d="M2140.42,928.333c-38.889,0 -73.889,-6.389 -105,-19.166c-31.111,-12.778 -55.695,-31.389 -73.75,-55.834c-18.056,-24.444 -27.084,-53.611 -27.084,-87.5c0,-21.666 3.611,-41.527 10.834,-59.583c7.222,-18.056 17.083,-34.167 29.583,-48.333c12.5,-14.167 26.944,-26.667 43.333,-37.5c16.389,-10.834 33.75,-19.861 52.084,-27.084c-11.111,-10.555 -21.945,-22.361 -32.5,-35.416c-10.556,-13.056 -19.306,-27.5 -26.25,-43.334c-6.945,-15.833 -10.417,-32.916 -10.417,-51.25c0,-22.777 4.167,-42.916 12.5,-60.416c8.333,-17.5 19.861,-32.361 34.583,-44.584c14.723,-12.222 32.361,-21.389 52.917,-27.5c20.556,-6.111 42.778,-9.166 66.667,-9.166c39.444,-0 71.805,10.972 97.083,32.916c25.278,21.945 37.917,50.139 37.917,84.584c-0,21.666 -4.723,42.083 -14.167,61.25c-9.444,19.166 -22.639,36.389 -39.583,51.666c-16.945,15.278 -36.806,28.473 -59.584,39.584l137.5,130c10.556,-43.334 22.639,-78.889 36.25,-106.667c13.611,-27.778 28.056,-49.167 43.334,-64.167c15.277,-15 30.833,-25.416 46.666,-31.25c15.834,-5.833 31.528,-8.75 47.084,-8.75c18.333,0 34.305,5.139 47.916,15.417c13.611,10.278 20.417,24.306 20.417,42.083c0,10 -1.806,19.167 -5.417,27.5c-3.611,8.334 -8.611,15 -15,20c-6.389,5 -14.305,7.5 -23.75,7.5c-7.222,0 -13.472,-1.527 -18.75,-4.583c-5.277,-3.056 -10.277,-8.333 -15,-15.833c-4.722,-7.5 -9.861,-17.917 -15.416,-31.25c-10,1.111 -21.667,7.361 -35,18.75c-13.334,11.389 -26.389,30.555 -39.167,57.5c-12.778,26.944 -23.889,64.305 -33.333,112.083c23.333,22.778 41.805,40.139 55.416,52.083c13.611,11.945 24.723,19.861 33.334,23.75c8.611,3.889 17.083,5.834 25.416,5.834c12.778,-0 26.111,-3.056 40,-9.167c13.889,-6.111 26.667,-14.167 38.334,-24.167l21.666,33.334c-7.222,11.666 -17.222,23.194 -30,34.583c-12.777,11.389 -27.083,20.972 -42.916,28.75c-15.834,7.778 -31.806,11.667 -47.917,11.667c-15,-0 -29.028,-2.778 -42.083,-8.334c-13.056,-5.555 -26.667,-13.889 -40.834,-25c-14.166,-11.111 -30.416,-25 -48.75,-41.666c-10,15.555 -23.75,30 -41.25,43.333c-17.5,13.333 -38.472,23.889 -62.916,31.667c-24.445,7.777 -52.778,11.666 -85,11.666Zm15,-53.333c34.444,0 62.916,-5.833 85.416,-17.5c22.5,-11.667 39.584,-28.333 51.25,-50l-185,-177.5c-15,6.667 -28.611,15 -40.833,25c-12.222,10 -22.083,22.778 -29.583,38.333c-7.5,15.556 -11.25,35 -11.25,58.334c-0,27.222 5.555,50 16.666,68.333c11.111,18.333 26.528,32.083 46.25,41.25c19.723,9.167 42.084,13.75 67.084,13.75Zm-5.834,-318.333c24.445,-11.111 43.056,-23.195 55.834,-36.25c12.777,-13.056 21.527,-26.389 26.25,-40c4.722,-13.611 7.083,-26.528 7.083,-38.75c0,-22.778 -7.361,-39.584 -22.083,-50.417c-14.723,-10.833 -32.917,-16.25 -54.584,-16.25c-23.333,0 -42.916,5.417 -58.75,16.25c-15.833,10.833 -23.75,28.194 -23.75,52.083c0,12.223 2.917,24.584 8.75,37.084c5.834,12.5 14.028,25 24.584,37.5c10.555,12.5 22.777,25.416 36.666,38.75Z" style="fill:#d4a574;fill-rule:nonzero;"/><path d="M2735.21,336.667l250,-0l0,83.333l-158.333,0l-0,154.167l125.833,-0l0,83.333l-125.833,0l-0,179.167l158.333,-0l0,83.333l-250,0l0,-583.333Z" style="fill:#2a2420;fill-rule:nonzero;"/><path d="M3101.04,420l-95.834,0l0,-83.333l283.334,-0l-0,83.333l-95.834,0l0,500l-91.666,0l-0,-500Z" style="fill:#2a2420;fill-rule:nonzero;"/><path d="M3450.21,928.333c-43.889,0 -77.361,-12.5 -100.416,-37.5c-23.056,-25 -34.584,-60.277 -34.584,-105.833l0,-313.333c0,-45.556 11.528,-80.834 34.584,-105.834c23.055,-25 56.527,-37.5 100.416,-37.5c43.889,0 77.361,12.5 100.417,37.5c23.055,25 34.583,60.278 34.583,105.834l0,61.666l-86.666,0l-0,-67.5c-0,-36.111 -15.278,-54.166 -45.834,-54.166c-30.555,-0 -45.833,18.055 -45.833,54.166l-0,325.834c-0,35.555 15.278,53.333 45.833,53.333c30.556,0 45.834,-17.778 45.834,-53.333l-0,-89.167l86.666,0l0,82.5c0,45.556 -11.528,80.833 -34.583,105.833c-23.056,25 -56.528,37.5 -100.417,37.5Z" style="fill:#2a2420;fill-rule:nonzero;"/><path d="M3631.87,336.667l91.667,-0l-0,237.5l98.333,-0l-0,-237.5l91.667,-0l-0,583.333l-91.667,0l-0,-262.5l-98.333,0l-0,262.5l-91.667,0l-0,-583.333Z" style="fill:#2a2420;fill-rule:nonzero;"/></svg>